{
  "accessors": [
    {
      "bufferView": 1,
      "componentType": 5126,
      "count": 44,
      "max": [
        1,
        1,
        1.4178999662399292
      ],
      "min": [
        -1,
        -1,
        0.82634001970291138
      ],
      "type": "VEC3"
    },
    {
      "bufferView": 1,
      "byteOffset": 528,
      "componentType": 5126,
      "count": 44,
      "max": [
        1,
        1,
        1
      ],
      "min": [
        -1,
        -1,
        -1
      ],
      "type": "VEC3"
    },
    {
      "bufferView": 0,
      "componentType": 5125,
      "count": 78,
      "max": [
        43
      ],
      "min": [
        0
      ],
      "type": "SCALAR"
    },
    {
      "bufferView": 1,
      "byteOffset": 1056,
      "componentType": 5126,
      "count": 120,
      "max": [
        0.98079001903533936,
        0.98079001903533936,
        0.40310999751091003
      ],
      "min": [
        -0.90613001585006714,
        -0.90613001585006714,
        -0.85957002639770508
      ],
      "type": "VEC3"
    },
    {
      "bufferView": 1,
      "byteOffset": 2496,
      "componentType": 5126,
      "count": 120,
      "max": [
        0.99106472730636597,
        0.99106192588806152,
        0.93130964040756226
      ],
      "min": [
        -0.99106472730636597,
        -0.99106192588806152,
        -0.63439488410949707
      ],
      "type": "VEC3"
    },
    {
      "bufferView": 0,
      "byteOffset": 312,
      "componentType": 5125,
      "count": 684,
      "max": [
        119
      ],
      "min": [
        0
      ],
      "type": "SCALAR"
    },
    {
      "bufferView": 1,
      "byteOffset": 3936,
      "componentType": 5126,
      "count": 200,
      "max": [
        0.46384000778198242,
        0.072999998927116394,
        4.7968897819519043
      ],
      "min": [
        -0.46384000778198242,
        -0.072999998927116394,
        0
      ],
      "type": "VEC3"
    },
    {
      "bufferView": 1,
      "byteOffset": 6336,
      "componentType": 5126,
      "count": 200,
      "max": [
        0.8196709156036377,
        0.69511681795120239,
        0.85900062322616577
      ],
      "min": [
        -0.8196709156036377,
        -0.69493883848190308,
        -0.81649786233901978
      ],
      "type": "VEC3"
    },
    {
      "bufferView": 0,
      "byteOffset": 3048,
      "componentType": 5125,
      "count": 348,
      "max": [
        199
      ],
      "min": [
        0
      ],
      "type": "SCALAR"
    }
  ],
  "asset": {
    "extras": {
      "author": "Emurga (https://sketchfab.com/Emurga)",
      "license": "CC-BY-4.0 (http://creativecommons.org/licenses/by/4.0/)",
      "source": "https://sketchfab.com/models/2da8617cc7b243d2bdf2fd997b9b15fd",
      "title": "Fish Bowl"
    },
    "generator": "Sketchfab-3.19.8",
    "version": "2.0"
  },
  "bufferViews": [
    {
      "buffer": 0,
      "byteLength": 4440,
      "byteOffset": 0,
      "name": "floatBufferViews",
      "target": 34963
    },
    {
      "buffer": 0,
      "byteLength": 8736,
      "byteOffset": 4440,
      "byteStride": 12,
      "name": "floatBufferViews",
      "target": 34962
    }
  ],
  "buffers": [
    {
      "byteLength": 13176,
      "uri": "scene.bin"
    }
  ],
  "extensionsRequired": [
    "KHR_materials_pbrSpecularGlossiness"
  ],
  "extensionsUsed": [
    "KHR_materials_pbrSpecularGlossiness"
  ],
  "materials": [
    {
      "doubleSided": true,
      "emissiveFactor": [
        0,
        0,
        0
      ],
      "extensions": {
        "KHR_materials_pbrSpecularGlossiness": {
          "diffuseFactor": [
            0.1175685976,
            0.1175685976,
            0.1175685976,
            1
          ],
          "glossinessFactor": 1,
          "specularFactor": [
            0,
            0,
            0
          ]
        }
      },
      "name": "Material.001"
    },
    {
      "alphaMode": "BLEND",
      "doubleSided": true,
      "emissiveFactor": [
        0,
        0,
        0
      ],
      "extensions": {
        "KHR_materials_pbrSpecularGlossiness": {
          "diffuseFactor": [
            0.18272736389999999,
            0.33780667460000002,
            1,
            0.2301379298
          ],
          "glossinessFactor": 0.66291920729999998,
          "specularFactor": [
            0.72732469509999997,
            0.72732469509999997,
            0.72732469509999997
          ]
        }
      },
      "name": "Material"
    }
  ],
  "meshes": [
    {
      "name": "Cube_0",
      "primitives": [
        {
          "attributes": {
            "NORMAL": 1,
            "POSITION": 0
          },
          "indices": 2,
          "material": 0,
          "mode": 4
        }
      ]
    },
    {
      "name": "Sphere_0",
      "primitives": [
        {
          "attributes": {
            "NORMAL": 4,
            "POSITION": 3
          },
          "indices": 5,
          "material": 1,
          "mode": 4
        }
      ]
    },
    {
      "name": "Cube.001_0",
      "primitives": [
        {
          "attributes": {
            "NORMAL": 7,
            "POSITION": 6
          },
          "indices": 8,
          "material": 0,
          "mode": 4
        }
      ]
    }
  ],
  "nodes": [
    {
      "children": [
        1
      ],
      "name": "RootNode (gltf orientation matrix)",
      "rotation": [
        -0.70710678118654746,
        -0,
        -0,
        0.70710678118654757
      ]
    },
    {
      "children": [
        2
      ],
      "name": "RootNode (model correction matrix)"
    },
    {
      "children": [
        3,
        5,
        7
      ],
      "name": "Root"
    },
    {
      "children": [
        4
      ],
      "matrix": [
        1,
        0,
        0,
        0,
        0,
        1,
        0,
        0,
        0,
        0,
        1,
        0,
        0,
        0,
        -0.82029000000000007,
        1
      ],
      "name": "Cube"
    },
    {
      "mesh": 0,
      "name": "Cube_0"
    },
    {
      "children": [
        6
      ],
      "matrix": [
        1,
        0,
        0,
        0,
        0,
        1,
        0,
        0,
        0,
        0,
        1,
        0,
        0,
        0,
        1.4553399999999999,
        1
      ],
      "name": "Sphere"
    },
    {
      "mesh": 1,
      "name": "Sphere_0"
    },
    {
      "children": [
        8
      ],
      "matrix": [
        0.32372000000000006,
        -0.053690000000000015,
        0,
        0,
        0.043230000000000011,
        0.26063999999999998,
        -0.19463000000000003,
        0,
        0.031840000000000007,
        0.19201000000000004,
        0.26419999999999999,
        0,
        -0.016820000000000002,
        -0.17321000000000003,
        0.57877000000000012,
        1
      ],
      "name": "Cube.001"
    },
    {
      "mesh": 2,
      "name": "Cube.001_0"
    }
  ],
  "scene": 0,
  "scenes": [
    {
      "name": "OSG_Scene",
      "nodes": [
        0
      ]
    }
  ]
}

